<svg width="273" height="287" viewBox="0 0 273 287" fill="none" xmlns="http://www.w3.org/2000/svg">
<path d="M167.785 47.3643L168.161 45.9597L168.161 44.1029L167.854 42.5607L166.64 40.5043L164.584 38.448L161.804 35.9769L159.443 33.8212L156.873 31.7648L154.302 29.7085L151.732 28.3443L149.676 27.6236L147.108 27.6236L143.151 28.3443L138.88 29.1944L134.253 30.7366L131.169 32.2789L127.619 34.3437L126.352 36.2623L126.352 38.448L126.935 40.5043L129.693 42.05L132.314 43.505L139.851 46.2771L144.955 46.892L147.695 46.4972L150.88 45.8454L153.621 45.4506L156.173 45.7581L158.725 46.0655L160.129 46.4419L162.236 47.0064L162.493 47.4516L162.305 48.1538L160.455 48.0346L156.053 47.6078L153.758 47.7455L151.018 48.1403L148.723 48.2781L145.093 49.187L142.164 50.284L139.938 51.5692L137.712 52.8545L135.041 54.3967L131.924 56.196L129.253 57.7383L126.839 59.7258L124.87 61.4562L123.158 63.6319L121.891 65.5505L120.881 67.9143L120.574 70.4663L121.157 72.5042L122.442 74.7302L123.47 76.5111L125.903 78.6683L129.577 80.4055L133.251 82.1426L138.938 84.7955L142.45 85.7363L145.704 86.2319L147.108 86.6083L148.958 86.7276L150.808 86.8469L153.36 87.1543L156.357 87.2048L158.395 86.6218L160.878 85.7818L163.361 84.9418L164.509 84.8729L165.211 85.0611L165.468 85.5063L165.28 86.2085L163.944 86.9797L161.016 88.0767L157.385 88.9856L153.498 89.4493L148.908 89.7248L145.02 90.1884L140.311 92.3137L138.085 93.5989L136.304 94.6271L134.78 96.1005L133.702 97.3168L133.068 98.2761L132.435 99.2354L132.247 99.9377L132.059 100.64L131.87 101.342L132.384 102.233L133.413 104.013L135.331 105.28L137.712 106.524L140.311 107.053L144.021 107.552L147.108 107.947L150.19 107.947L152.305 107.947L154.817 107.552L156.873 106.308L158.93 104.765L160.472 103.223L163.042 100.64L165.613 98.2761L167.155 96.5399L169.211 94.6271L170.239 93.5989L170.75 92.3137L171.582 89.7248L171.582 86.6083L171.582 84.2018L172.81 81.1173L173.583 79.0609L174.266 75.4623L174.266 72.8919L174.266 69.8073L174.266 66.2087L173.583 62.096L172.334 57.9833L170.75 54.5565L169.722 52.7757L168.694 50.9948L168.18 50.1044L167.854 48.5117L167.785 47.3643Z" fill="#704329" stroke="#704329"/>
<path d="M129.98 56.1974L133.423 55.9907L129.037 58.5491L128.009 59.0632L125.952 60.6054L123.61 62.9141L121.839 64.7181L120.297 67.2886L119.269 69.859L119.089 71.9154L119.783 73.9717L120.297 75.514L120.811 76.5422L121.839 78.0844L122.868 79.1126L124.41 80.1408L126.466 81.1689L128.523 82.1971L132.635 82.1971L133.663 82.7112L123.225 85.6234L117.625 88.2627L112.54 91.7924L108.564 95.069L101.881 101.238L94.684 110.492L89.0291 121.802L85.9445 133.626L84.9968 143.393L85.9445 154.189L88.0009 163.957L90.3862 171.662L98.0286 183.871L103.991 191.113L108.856 195.428L114.167 199.485L124.907 205.75L135.698 209.018L149.229 211.891L158.409 211.34L166.184 210.412L172.555 209.109L177.521 207.429L182.231 205.303L188.909 201.448L197.299 195.416L203.206 190.225L207.897 183.955L214.231 174.362L217.003 166.826L219.894 157.439L220.936 147.933L221.463 137.537L220.587 126.765L218.888 117.654L216.625 110.65L211.415 100.598L204.406 87.4299L201.065 81.6421L201.51 81.3851L202.657 81.3162L204.062 81.6926L205.98 82.9593L208.413 85.1165L211.429 89.3116L214.959 94.3971L220.871 104.637L224.607 113.165L227.265 122.909L229.546 134.058L230.423 144.83L230.203 152.675L228.22 165.692L225.141 175.78L221.359 185.681L214.649 196.678L206.979 207.042L196.946 216.397L189.001 222.171L181.878 226.284L173.162 230.722L161.191 234.665L149.597 237.204L137.865 237.447L131.871 237.347L134.116 240.206L137.062 243.254L140.197 245.599L142.116 246.866L144.806 249.468L146.348 252.139L143.732 266.116L143.356 267.52L141.575 268.548L139.982 268.874L138.578 268.498L137.035 265.827L136.572 261.939L136.81 258.24L135.011 255.123L132.321 252.521L127.337 250.056L122.678 249.184L118.652 247.353L115.517 245.007L113.53 242.593L111.285 239.734L110.188 236.805L109.982 233.363L109.468 232.473L108.765 232.284L107.173 232.61L108.219 238.536L109.454 243.759L113.824 251.328L114.219 254.068L110.864 259.567L107.252 264.62L104.392 266.865L102.354 267.448L100.693 266.626L99.2193 265.102L99.3385 263.253L100.091 260.444L102.18 256.863L102.606 252.462L100.293 248.455L98.2366 244.893L95.5468 242.291L92.343 238.798L89.2585 233.455L88.3496 229.825L88.9645 224.721L88.8956 223.573L88.6386 223.128L86.72 221.861L76.8011 213.935L71.9357 209.62L63.7287 199.518L57.8856 190.426L54.2181 183.045L51.2529 175.853L48.338 165.664L46.3137 154.96L45.7627 145.78L46.0332 134.939L48.0157 121.922L50.9071 112.536L55.7676 101.419L62.0326 90.6782L67.6137 83.8943L71.1065 80.6904L72.9136 79.1322L75.4841 77.0759L78.0049 75.311L80.6249 74.0257L79.0827 71.4209L78.0049 68.9906L77.5404 66.7941L77.0775 64.5242L76.5122 60.6251L76.9902 55.9233L78.7525 50.7503L80.5001 47.6082L81.9195 45.9539L84.3105 44.3057L87.1163 42.5249L89.4519 41.7119L91.5082 41.5842L92.9993 42.5249L94.0275 44.3057L93.2748 47.1148L91.8199 49.7356L89.0293 53.1276L87.5744 55.7485L86.8906 59.705L86.2068 63.6615L87.1158 67.2922L89.8785 68.9906L91.8522 68.1414L93.8258 67.2922L92.5775 62.3578L93.8258 56.2945L95.4001 51.8239L98.1218 47.2845L100.467 44.1495L103.584 42.3502L106.7 40.5509L109.628 39.4539L112.814 38.802L114.921 39.3665L117.027 39.931L118.056 41.7119L118.381 43.3046L117.56 44.9661L115.591 46.6966L112.663 47.7936L109.546 49.5929L107.132 51.5804L105.865 53.499L104.153 55.6747L102.441 57.8503L100.986 60.4712L101.055 61.6186L101.569 62.5092L101.826 62.9544L102.786 63.5878L104.635 63.7071L108.711 62.5411L114.123 60.6041L119.089 58.9241L123.61 57.5011L127.24 56.5922L129.98 56.1974Z" fill="#704329"/>
<path d="M93.8258 67.2922L92.5775 62.3578L93.8258 56.2945L95.4001 51.8239L98.1218 47.2845L100.467 44.1495L103.584 42.3502L106.7 40.5509L109.628 39.4539L112.814 38.802L114.921 39.3665L117.027 39.931L118.056 41.7119L118.381 43.3046L117.56 44.9661L115.591 46.6966L112.663 47.7936L109.546 49.5929L107.132 51.5804L105.865 53.499L104.153 55.6747L102.441 57.8503L100.986 60.4712L101.055 61.6186L101.569 62.5092L101.826 62.9544L102.786 63.5878L104.635 63.7071L108.711 62.5411L114.123 60.6041L119.089 58.9241L123.61 57.5011L127.24 56.5922L129.98 56.1974L133.423 55.9907L129.037 58.5491L128.008 59.0632L125.952 60.6054L123.61 62.9141L121.839 64.7181L120.297 67.2886L119.269 69.859L119.089 71.9154L119.783 73.9717L120.297 75.514L120.811 76.5422L121.839 78.0844L122.868 79.1126L124.41 80.1408L126.466 81.1689L128.523 82.1971L132.635 82.1971L133.663 82.7112L123.225 85.6234L117.625 88.2627L112.54 91.7924L108.564 95.069L101.881 101.238L94.684 110.492L89.0291 121.802L85.9445 133.626L84.9968 143.393L85.9445 154.189L88.0009 163.957L90.3862 171.662L98.0286 183.871L103.991 191.113L108.856 195.428L114.167 199.485L124.907 205.75L135.698 209.018L149.229 211.891L158.409 211.34L166.184 210.412L172.555 209.109L177.521 207.429L182.231 205.303L188.909 201.448L197.299 195.416L203.206 190.225L207.897 183.955L214.231 174.362L217.003 166.826L219.894 157.439L220.936 147.933L221.463 137.537L220.587 126.765L218.888 117.654L216.625 110.65L211.415 100.598L204.406 87.4299L201.065 81.6421L201.51 81.3851L202.657 81.3162L204.062 81.6926L205.98 82.9593L208.413 85.1165L211.429 89.3116L214.959 94.3971L220.871 104.637L224.607 113.165L227.265 122.909L229.546 134.058L230.423 144.83L230.203 152.675L228.22 165.692L225.141 175.78L221.359 185.681L214.649 196.678L206.979 207.042L196.946 216.397L189.001 222.171L181.878 226.284L173.162 230.722L161.191 234.665L149.597 237.204L137.865 237.447L131.871 237.347L134.116 240.206L137.062 243.254L140.197 245.599L142.116 246.866L144.806 249.468L146.348 252.139L143.732 266.116L143.356 267.52L141.575 268.548L139.982 268.874L138.578 268.498L137.035 265.827L136.572 261.939L136.81 258.24L135.011 255.123L132.321 252.521L127.337 250.056L122.678 249.184L118.652 247.353L115.517 245.007L113.53 242.593L111.285 239.734L110.188 236.805L109.982 233.363L109.468 232.473L108.765 232.284L107.173 232.61L108.219 238.536L109.454 243.759L113.824 251.328L114.219 254.068L110.864 259.567L107.252 264.62L104.392 266.865L102.354 267.448L100.693 266.626L99.2193 265.102L99.3385 263.253L100.091 260.444L102.18 256.863L102.606 252.462L100.293 248.455L98.2366 244.893L95.5468 242.291L92.343 238.798L89.2585 233.455L88.3496 229.825L88.9645 224.721L88.8956 223.573L88.6386 223.128L86.72 221.861L76.8011 213.935L71.9357 209.62L63.7287 199.518L57.8856 190.426L54.2181 183.045L51.2529 175.853L48.338 165.664L46.3137 154.96L45.7627 145.78L46.0332 134.939L48.0157 121.922L50.9072 112.536L55.7676 101.419L62.0325 90.6782L67.6137 83.8943L71.1065 80.6904L72.9136 79.1322L75.484 77.0759L78.0049 75.311L80.6249 74.0257L79.0827 71.4209L78.0049 68.9906L77.5404 66.7941L77.0775 64.5242L76.5122 60.6251L76.9902 55.9233L78.7525 50.7503L80.5001 47.6082L81.9195 45.9539L84.3105 44.3057L87.1163 42.5249L89.4519 41.7119L91.5082 41.5842L92.9993 42.5249L94.0275 44.3057L93.2748 47.1148L91.8199 49.7356L89.0293 53.1276L87.5744 55.7485L86.8906 59.705L86.2068 63.6615L87.1158 67.2922L89.8785 68.9906M93.8258 67.2922L92.9379 64.5242M93.8258 67.2922L89.8785 68.9906M89.8785 68.9906L91.8522 68.1414" stroke="#704329" stroke-width="3"/>
<path d="M130.581 57.0068L134.143 54.9504L133.408 61.9041L132.101 62.6618L130.559 63.6899L129.401 64.2175L128.254 64.2864L126.574 64.2175L123.381 66.2604L122.847 66.7745L122.353 67.2886L121.839 67.8026L121.325 69.3449L121.325 70.3731L121.325 71.4013L121.839 72.4294L122.353 72.9435L123.381 73.9717L125.438 75.514L127.474 76.2063L129.287 75.7509L130.981 75.1782L132.615 75.1782L134.157 76.0281L135.186 77.0562L135.589 78.1569L136.214 79.6267L136.567 81.0028L136.567 82.1971L136.567 83.8254L129.287 81.4985L125.932 80.1408L121.939 78.0241L119.763 76.0281L118.735 74.4858L117.707 72.4294L117.569 70.4555L117.707 68.3167L118.064 67.2012L118.735 65.7463L119.763 64.2175L121.305 62.6618L122.847 61.6336L126.574 59.3202L130.581 57.0068Z" fill="white" stroke="white"/>
<path d="M126.749 69.9045L126.466 66.7745L126.98 66.7745L128.008 67.2886L128.522 67.8026L128.759 68.57L129.016 69.3449L129.016 70.3731L129.016 70.8872L129.016 71.4013L129.016 71.9154L129.016 72.4294L128.759 73.0565L128.522 73.4576L127.494 73.9717L126.98 73.9717L126.96 73.4576L126.96 72.9435L126.886 72.1994L126.749 69.9045Z" fill="white" stroke="white" stroke-width="0.5"/>
<path d="M154.272 50.3794L153.758 49.8653L153.244 49.3513L152.73 48.8372L152.73 48.3231L153.758 47.809L154.272 47.809L155.301 47.809L156.329 48.3231L156.843 48.8372L157.871 49.8653L158.899 51.4076L159.413 52.9499L159.413 53.978L159.017 55.2028L158.383 56.1621L157.493 56.6761L156.791 56.488L156.277 55.5975L156.329 54.4921L156.277 53.978L155.815 52.4358L154.786 50.8935L154.272 50.3794Z" fill="white" stroke="#704329"/>
<path d="M152.73 50.3794L151.788 49.8786L151.292 49.6083L150.674 49.3512L150.16 49.3512L149.646 49.3512L148.827 49.6083L147.589 50.3794L146.564 51.1134L145.486 52.3298L144.852 53.2891L144.476 54.6936L144.545 55.8411L145.316 57.1767L146.978 57.9983L148.827 58.1176L149.975 58.0487L151.702 57.5766L152.73 57.0626L153.758 56.0344L154.032 55.0062L154.101 53.8856L154.032 52.7381L153.758 51.9217L153.244 50.8935L152.73 50.3794Z" stroke="white" stroke-width="0.8"/>
<path d="M149.956 53.904L150.847 53.3899L151.549 53.5781L152.063 54.4685L152.32 54.9137L152.132 55.616L151.242 56.1301L150.796 56.3871C150.562 56.3244 150.043 56.1099 149.837 55.7537L149.323 54.8633L149.956 53.904Z" fill="white" stroke="#704329"/>
<path d="M157.357 84.1241L156.843 84.6381L156.329 85.1522L155.815 85.6663L155.815 86.1804L156.843 86.6945L157.357 86.6945L158.385 86.6945L159.413 86.1804L159.928 85.6663L160.956 84.6381L161.984 83.0959L162.498 81.5536L162.498 80.5254L162.101 79.3007L161.468 78.3414L160.578 77.8273L159.875 78.0155L159.361 78.9059L159.413 80.0113L159.361 80.5254L158.899 82.0677L157.871 83.61L157.357 84.1241Z" fill="white" stroke="#704329"/>
<path d="M155.815 84.1241L154.872 84.6248L154.377 84.8952L153.759 85.1522L153.244 85.1522L152.73 85.1522L151.912 84.8952L150.674 84.1241L149.649 83.39L148.57 82.1737L147.937 81.2144L147.561 79.8099L147.63 78.6624L148.401 77.3268L150.062 76.5052L151.912 76.3859L153.059 76.4548L154.787 76.9268L155.815 77.4409L156.843 78.4691L157.117 79.4973L157.186 80.6179L157.117 81.7654L156.843 82.5818L156.329 83.61L155.815 84.1241Z" stroke="white" stroke-width="0.8"/>
<path d="M153.041 80.5995L153.931 81.1136L154.634 80.9254L155.148 80.035L155.405 79.5898L155.217 78.8875L154.326 78.3734L153.881 78.1164C153.647 78.1791 153.127 78.3936 152.922 78.7497L152.408 79.6402L153.041 80.5995Z" fill="white" stroke="#704329"/>
<path d="M98.026 151.892C97.786 151.952 97.558 151.916 97.342 151.784C95.962 150.956 94.06 150.008 91.636 148.94L91.546 148.904L91.258 148.814C90.97 148.694 90.718 148.574 90.502 148.454C90.13 148.262 89.854 148.04 89.674 147.788C89.338 147.332 89.266 146.852 89.458 146.348C89.638 145.88 90.028 145.604 90.628 145.52C90.712 145.508 90.784 145.496 90.844 145.484C90.904 145.484 90.946 145.484 90.97 145.484H91.06L92.23 145.07C94.042 144.41 95.932 143.6 97.9 142.64C98.128 142.532 98.356 142.52 98.584 142.604C98.824 142.676 98.998 142.826 99.106 143.054C99.214 143.282 99.226 143.516 99.142 143.756C99.07 143.984 98.92 144.152 98.692 144.26C96.556 145.28 94.606 146.114 92.842 146.762L91.852 147.104L91.888 147.122L92.14 147.212C92.236 147.248 92.308 147.272 92.356 147.284C94.852 148.388 96.826 149.372 98.278 150.236C98.482 150.368 98.614 150.554 98.674 150.794C98.746 151.034 98.716 151.262 98.584 151.478C98.452 151.682 98.266 151.82 98.026 151.892ZM104.547 151.964C103.851 152.048 103.185 151.952 102.549 151.676C101.913 151.388 101.439 150.902 101.127 150.218C101.055 150.074 100.989 149.9 100.929 149.696C100.881 149.48 100.839 149.27 100.803 149.066C100.779 148.862 100.761 148.754 100.749 148.742C100.701 148.502 100.737 148.28 100.857 148.076C100.989 147.86 101.175 147.728 101.415 147.68C101.667 147.62 101.895 147.656 102.099 147.788C102.315 147.908 102.453 148.094 102.513 148.346C102.549 148.526 102.579 148.694 102.603 148.85C102.627 149.006 102.645 149.126 102.657 149.21C102.681 149.282 102.711 149.366 102.747 149.462C102.879 149.726 103.083 149.924 103.359 150.056C103.635 150.188 103.959 150.23 104.331 150.182C104.703 150.134 105.033 150.008 105.321 149.804C105.621 149.6 105.819 149.366 105.915 149.102C106.155 148.49 106.317 147.692 106.401 146.708C106.485 145.712 106.509 144.806 106.473 143.99C106.449 143.162 106.401 142.136 106.329 140.912C105.789 140.924 105.267 140.948 104.763 140.984C104.511 140.996 104.289 140.924 104.097 140.768C103.917 140.6 103.815 140.396 103.791 140.156C103.779 139.904 103.851 139.688 104.007 139.508C104.175 139.316 104.379 139.208 104.619 139.184C105.411 139.136 106.239 139.106 107.103 139.094H107.211C107.859 139.094 108.567 139.106 109.335 139.13C109.575 139.142 109.779 139.238 109.947 139.418C110.127 139.598 110.211 139.814 110.199 140.066C110.187 140.306 110.091 140.516 109.911 140.696C109.731 140.864 109.515 140.942 109.263 140.93L108.129 140.894C108.429 145.118 108.255 148.07 107.607 149.75C107.355 150.374 106.947 150.878 106.383 151.262C105.819 151.646 105.207 151.88 104.547 151.964ZM111.126 151.46C111.03 151.7 110.862 151.868 110.622 151.964C110.394 152.06 110.16 152.06 109.92 151.964C109.692 151.868 109.53 151.706 109.434 151.478C109.338 151.238 109.338 151.004 109.434 150.776C109.674 150.188 109.986 149.294 110.37 148.094C110.766 146.894 111.048 146.084 111.216 145.664C111.3 145.424 111.642 144.572 112.242 143.108C112.806 141.668 113.244 140.498 113.556 139.598C113.64 139.358 113.79 139.184 114.006 139.076C114.234 138.956 114.468 138.938 114.708 139.022C114.816 139.058 114.912 139.112 114.996 139.184C115.236 139.268 115.404 139.43 115.5 139.67L119.982 150.74C120.078 150.98 120.078 151.22 119.982 151.46C119.886 151.688 119.718 151.85 119.478 151.946C119.25 152.042 119.016 152.042 118.776 151.946C118.548 151.85 118.386 151.688 118.29 151.46L116.94 147.968C116.448 147.992 116.172 148.004 116.112 148.004C114.492 148.064 113.22 148.094 112.296 148.094C111.756 149.678 111.366 150.8 111.126 151.46ZM112.962 146.258C113.97 146.246 115.05 146.222 116.202 146.186L114.564 142.226L112.962 146.258ZM131.112 152.054C131.028 152.054 130.95 152.042 130.878 152.018C130.53 152.078 130.242 151.976 130.014 151.712C129.69 151.316 129.348 150.872 128.988 150.38C128.64 149.876 128.352 149.444 128.124 149.084L127.224 147.662L126.396 146.366C125.58 145.106 124.644 143.78 123.588 142.388C123.576 143.396 123.594 144.872 123.642 146.816C123.702 148.76 123.732 150.194 123.732 151.118C123.732 151.37 123.642 151.586 123.462 151.766C123.294 151.934 123.084 152.018 122.832 152.018C122.58 152.018 122.364 151.934 122.184 151.766C122.016 151.586 121.932 151.37 121.932 151.118C121.932 150.398 121.902 148.772 121.842 146.24C121.782 143.696 121.776 141.74 121.824 140.372C121.836 140.192 121.878 140.006 121.95 139.814C122.01 139.646 122.13 139.478 122.31 139.31C122.502 139.178 122.724 139.124 122.976 139.148C123.228 139.172 123.432 139.28 123.588 139.472C125.292 141.596 126.732 143.57 127.908 145.394L128.646 146.564L129.492 147.896L130.23 148.994C130.29 144.998 130.302 142.016 130.266 140.048C130.266 139.796 130.35 139.58 130.518 139.4C130.686 139.22 130.896 139.13 131.148 139.13C131.4 139.13 131.616 139.214 131.796 139.382C131.976 139.55 132.066 139.76 132.066 140.012C132.09 141.512 132.072 145.232 132.012 151.172C132.012 151.412 131.922 151.622 131.742 151.802C131.562 151.97 131.352 152.054 131.112 152.054ZM143.963 151.928C142.343 151.952 139.793 151.934 136.313 151.874C136.073 151.874 135.863 151.784 135.683 151.604C135.515 151.424 135.431 151.214 135.431 150.974C135.359 150.83 135.323 150.68 135.323 150.524C135.347 149.708 135.359 148.532 135.359 146.996C135.359 145.46 135.365 144.416 135.377 143.864C135.377 143.66 135.371 143.306 135.359 142.802C135.347 142.286 135.347 141.812 135.359 141.38C135.371 140.936 135.407 140.522 135.467 140.138C135.491 139.97 135.563 139.82 135.683 139.688C135.803 139.556 135.947 139.466 136.115 139.418C136.271 139.274 136.463 139.196 136.691 139.184C137.579 139.16 138.845 139.142 140.489 139.13C142.145 139.118 143.273 139.112 143.873 139.112C144.125 139.112 144.335 139.202 144.503 139.382C144.683 139.55 144.773 139.76 144.773 140.012C144.773 140.264 144.683 140.48 144.503 140.66C144.335 140.828 144.125 140.912 143.873 140.912C143.237 140.912 142.163 140.918 140.651 140.93C139.151 140.942 137.993 140.954 137.177 140.966C137.141 141.134 137.129 141.596 137.141 142.352C137.165 143.096 137.177 143.612 137.177 143.9V144.638C137.765 144.602 138.389 144.584 139.049 144.584C139.721 144.584 140.477 144.59 141.317 144.602C142.169 144.614 142.799 144.62 143.207 144.62C143.459 144.62 143.669 144.71 143.837 144.89C144.017 145.058 144.107 145.268 144.107 145.52C144.107 145.772 144.017 145.988 143.837 146.168C143.669 146.336 143.459 146.42 143.207 146.42C142.787 146.42 142.151 146.414 141.299 146.402C140.459 146.39 139.709 146.384 139.049 146.384C138.389 146.384 137.759 146.402 137.159 146.438C137.159 148.142 137.153 149.36 137.141 150.092C140.069 150.14 142.331 150.152 143.927 150.128C144.179 150.128 144.395 150.212 144.575 150.38C144.755 150.548 144.845 150.758 144.845 151.01C144.845 151.262 144.761 151.478 144.593 151.658C144.425 151.838 144.215 151.928 143.963 151.928ZM156.414 152.036C154.854 152.06 153.744 152.054 153.084 152.018C152.856 152.006 152.658 151.922 152.49 151.766C152.322 151.598 152.232 151.394 152.22 151.154C152.208 151.094 152.202 151.04 152.202 150.992C152.19 150.308 152.16 148.694 152.112 146.15C152.064 143.606 152.04 141.53 152.04 139.922C152.04 139.67 152.124 139.46 152.292 139.292C152.472 139.112 152.688 139.022 152.94 139.022C153.192 139.022 153.402 139.112 153.57 139.292C153.75 139.46 153.84 139.67 153.84 139.922C153.84 141.134 153.846 142.298 153.858 143.414C153.882 144.53 153.906 145.76 153.93 147.104C153.966 148.436 153.984 149.48 153.984 150.236C154.608 150.248 155.562 150.242 156.846 150.218C158.142 150.194 159.126 150.188 159.798 150.2C160.05 150.2 160.26 150.29 160.428 150.47C160.596 150.65 160.68 150.866 160.68 151.118C160.68 151.37 160.59 151.58 160.41 151.748C160.23 151.916 160.014 152 159.762 152C159.114 151.988 157.998 152 156.414 152.036ZM162.339 152.036C162.087 152.048 161.871 151.97 161.691 151.802C161.511 151.622 161.415 151.412 161.403 151.172C161.391 150.92 161.469 150.704 161.637 150.524C161.817 150.344 162.027 150.248 162.267 150.236L162.663 150.218C162.663 146.486 162.651 143.384 162.627 140.912H162.339C162.087 140.912 161.877 140.822 161.709 140.642C161.541 140.462 161.457 140.246 161.457 139.994C161.457 139.742 161.547 139.532 161.727 139.364C161.907 139.196 162.123 139.112 162.375 139.112C162.987 139.124 163.731 139.136 164.607 139.148C164.847 139.148 165.051 139.238 165.219 139.418C165.399 139.598 165.489 139.814 165.489 140.066C165.489 140.306 165.399 140.516 165.219 140.696C165.039 140.864 164.823 140.948 164.571 140.948H164.427C164.451 143.408 164.463 146.492 164.463 150.2H164.823C165.075 150.2 165.285 150.29 165.453 150.47C165.633 150.638 165.723 150.848 165.723 151.1C165.723 151.352 165.633 151.568 165.453 151.748C165.285 151.916 165.075 152 164.823 152C163.899 152 163.071 152.012 162.339 152.036ZM168.308 151.46C168.212 151.7 168.044 151.868 167.804 151.964C167.576 152.06 167.342 152.06 167.102 151.964C166.874 151.868 166.712 151.706 166.616 151.478C166.52 151.238 166.52 151.004 166.616 150.776C166.856 150.188 167.168 149.294 167.552 148.094C167.948 146.894 168.23 146.084 168.398 145.664C168.482 145.424 168.824 144.572 169.424 143.108C169.988 141.668 170.426 140.498 170.738 139.598C170.822 139.358 170.972 139.184 171.188 139.076C171.416 138.956 171.65 138.938 171.89 139.022C171.998 139.058 172.094 139.112 172.178 139.184C172.418 139.268 172.586 139.43 172.682 139.67L177.164 150.74C177.26 150.98 177.26 151.22 177.164 151.46C177.068 151.688 176.9 151.85 176.66 151.946C176.432 152.042 176.198 152.042 175.958 151.946C175.73 151.85 175.568 151.688 175.472 151.46L174.122 147.968C173.63 147.992 173.354 148.004 173.294 148.004C171.674 148.064 170.402 148.094 169.478 148.094C168.938 149.678 168.548 150.8 168.308 151.46ZM170.144 146.258C171.152 146.246 172.232 146.222 173.384 146.186L171.746 142.226L170.144 146.258ZM188.294 152.054C188.21 152.054 188.132 152.042 188.06 152.018C187.712 152.078 187.424 151.976 187.196 151.712C186.872 151.316 186.53 150.872 186.17 150.38C185.822 149.876 185.534 149.444 185.306 149.084L184.406 147.662L183.578 146.366C182.762 145.106 181.826 143.78 180.77 142.388C180.758 143.396 180.776 144.872 180.824 146.816C180.884 148.76 180.914 150.194 180.914 151.118C180.914 151.37 180.824 151.586 180.644 151.766C180.476 151.934 180.266 152.018 180.014 152.018C179.762 152.018 179.546 151.934 179.366 151.766C179.198 151.586 179.114 151.37 179.114 151.118C179.114 150.398 179.084 148.772 179.024 146.24C178.964 143.696 178.958 141.74 179.006 140.372C179.018 140.192 179.06 140.006 179.132 139.814C179.192 139.646 179.312 139.478 179.492 139.31C179.684 139.178 179.906 139.124 180.158 139.148C180.41 139.172 180.614 139.28 180.77 139.472C182.474 141.596 183.914 143.57 185.09 145.394L185.828 146.564L186.674 147.896L187.412 148.994C187.472 144.998 187.484 142.016 187.448 140.048C187.448 139.796 187.532 139.58 187.7 139.4C187.868 139.22 188.078 139.13 188.33 139.13C188.582 139.13 188.798 139.214 188.978 139.382C189.158 139.55 189.248 139.76 189.248 140.012C189.272 141.512 189.254 145.232 189.194 151.172C189.194 151.412 189.104 151.622 188.924 151.802C188.744 151.97 188.534 152.054 188.294 152.054ZM199.741 151.892C198.493 152.276 197.161 152.15 195.745 151.514C194.341 150.878 193.309 150.014 192.649 148.922C192.169 148.118 191.869 147.272 191.749 146.384C191.641 145.496 191.689 144.728 191.893 144.08C192.109 143.42 192.439 142.748 192.883 142.064C193.327 141.38 193.849 140.798 194.449 140.318C195.109 139.814 195.817 139.454 196.573 139.238C197.341 139.022 198.121 138.968 198.913 139.076C199.717 139.184 200.521 139.514 201.325 140.066C202.141 140.606 202.879 141.356 203.539 142.316C203.683 142.52 203.731 142.748 203.683 143C203.635 143.24 203.503 143.432 203.287 143.576C203.083 143.72 202.861 143.768 202.621 143.72C202.381 143.672 202.189 143.546 202.045 143.342C201.529 142.598 200.971 142.022 200.371 141.614C199.783 141.194 199.207 140.954 198.643 140.894C198.079 140.822 197.539 140.858 197.023 141.002C196.531 141.158 196.051 141.416 195.583 141.776C194.947 142.268 194.449 142.862 194.089 143.558C193.729 144.158 193.549 144.854 193.549 145.646C193.549 146.438 193.771 147.212 194.215 147.968C194.683 148.748 195.427 149.366 196.447 149.822C197.479 150.278 198.403 150.386 199.219 150.146C199.963 149.918 200.563 149.486 201.019 148.85C201.487 148.202 201.715 147.494 201.703 146.726C200.647 146.738 199.507 146.774 198.283 146.834C198.043 146.846 197.827 146.768 197.635 146.6C197.455 146.432 197.359 146.222 197.347 145.97C197.335 145.718 197.413 145.496 197.581 145.304C197.749 145.112 197.959 145.01 198.211 144.998C199.735 144.926 201.187 144.89 202.567 144.89C202.819 144.89 203.035 144.98 203.215 145.16C203.395 145.34 203.485 145.556 203.485 145.808V145.934C203.689 147.23 203.431 148.454 202.711 149.606C202.003 150.746 201.013 151.508 199.741 151.892ZM207.121 151.622C206.881 151.706 206.647 151.694 206.419 151.586C206.203 151.478 206.053 151.304 205.969 151.064C205.897 150.824 205.915 150.596 206.023 150.38C206.131 150.152 206.305 150.002 206.545 149.93C206.977 149.786 208.135 149.336 210.019 148.58C211.519 147.98 212.725 147.542 213.637 147.266H213.673C213.553 147.206 213.439 147.152 213.331 147.104C210.343 145.892 208.033 145.07 206.401 144.638C206.161 144.578 205.975 144.44 205.843 144.224C205.723 144.008 205.693 143.78 205.753 143.54C205.825 143.3 205.969 143.12 206.185 143C206.401 142.868 206.629 142.838 206.869 142.91C208.573 143.354 210.955 144.2 214.015 145.448C214.171 145.508 214.369 145.598 214.609 145.718C214.849 145.838 215.017 145.916 215.113 145.952C215.125 145.964 215.137 145.97 215.149 145.97H215.203C215.227 145.97 215.269 145.976 215.329 145.988C215.401 145.988 215.485 146 215.581 146.024C215.833 146.072 216.037 146.144 216.193 146.24C216.553 146.468 216.733 146.792 216.733 147.212C216.733 147.644 216.505 148.004 216.049 148.292C215.857 148.412 215.605 148.532 215.293 148.652C215.197 148.676 214.813 148.79 214.141 148.994C213.277 149.258 212.125 149.678 210.685 150.254C209.041 150.914 207.853 151.37 207.121 151.622Z" fill="#704329"/>
<path d="M115.52 172.1C114.907 172.1 114.387 171.97 113.96 171.71C113.533 171.443 113.21 171.07 112.99 170.59C112.77 170.11 112.66 169.55 112.66 168.91V168.28C112.66 167.64 112.757 167.083 112.95 166.61C113.15 166.13 113.447 165.76 113.84 165.5C114.233 165.233 114.727 165.1 115.32 165.1C115.827 165.1 116.25 165.2 116.59 165.4C116.93 165.593 117.18 165.853 117.34 166.18C117.507 166.5 117.577 166.85 117.55 167.23L116.38 167.52C116.447 166.853 116.377 166.343 116.17 165.99C115.97 165.63 115.67 165.45 115.27 165.45C114.843 165.45 114.513 165.63 114.28 165.99C114.053 166.35 113.94 166.947 113.94 167.78V169.41C113.94 170.237 114.07 170.833 114.33 171.2C114.59 171.567 114.987 171.75 115.52 171.75C115.74 171.75 115.943 171.71 116.13 171.63C116.323 171.55 116.483 171.413 116.61 171.22C116.743 171.02 116.827 170.74 116.86 170.38L117.58 170.57C117.487 170.943 117.337 171.243 117.13 171.47C116.923 171.697 116.68 171.86 116.4 171.96C116.127 172.053 115.833 172.1 115.52 172.1ZM125.547 168.28V168.91C125.547 169.937 125.317 170.727 124.857 171.28C124.403 171.827 123.73 172.1 122.837 172.1C121.943 172.1 121.267 171.827 120.807 171.28C120.353 170.727 120.127 169.937 120.127 168.91V168.28C120.127 167.253 120.353 166.467 120.807 165.92C121.267 165.373 121.943 165.1 122.837 165.1C123.73 165.1 124.403 165.373 124.857 165.92C125.317 166.467 125.547 167.253 125.547 168.28ZM124.267 167.78C124.267 167.193 124.217 166.733 124.117 166.4C124.017 166.06 123.86 165.817 123.647 165.67C123.44 165.523 123.17 165.45 122.837 165.45C122.51 165.45 122.24 165.523 122.027 165.67C121.813 165.817 121.657 166.06 121.557 166.4C121.457 166.733 121.407 167.193 121.407 167.78V169.41C121.407 169.99 121.457 170.45 121.557 170.79C121.657 171.13 121.813 171.377 122.027 171.53C122.24 171.677 122.51 171.75 122.837 171.75C123.17 171.75 123.44 171.677 123.647 171.53C123.86 171.377 124.017 171.13 124.117 170.79C124.217 170.45 124.267 169.99 124.267 169.41V167.78ZM131.225 172.1C130.612 172.1 130.092 171.97 129.665 171.71C129.238 171.443 128.915 171.07 128.695 170.59C128.475 170.11 128.365 169.55 128.365 168.91V168.28C128.365 167.64 128.462 167.083 128.655 166.61C128.855 166.13 129.152 165.76 129.545 165.5C129.938 165.233 130.432 165.1 131.025 165.1C131.532 165.1 131.955 165.2 132.295 165.4C132.635 165.593 132.885 165.853 133.045 166.18C133.212 166.5 133.282 166.85 133.255 167.23L132.085 167.52C132.152 166.853 132.082 166.343 131.875 165.99C131.675 165.63 131.375 165.45 130.975 165.45C130.548 165.45 130.218 165.63 129.985 165.99C129.758 166.35 129.645 166.947 129.645 167.78V169.41C129.645 170.237 129.775 170.833 130.035 171.2C130.295 171.567 130.692 171.75 131.225 171.75C131.445 171.75 131.648 171.71 131.835 171.63C132.028 171.55 132.188 171.413 132.315 171.22C132.448 171.02 132.532 170.74 132.565 170.38L133.285 170.57C133.192 170.943 133.042 171.243 132.835 171.47C132.628 171.697 132.385 171.86 132.105 171.96C131.832 172.053 131.538 172.1 131.225 172.1ZM141.252 168.28V168.91C141.252 169.937 141.022 170.727 140.562 171.28C140.109 171.827 139.435 172.1 138.542 172.1C137.649 172.1 136.972 171.827 136.512 171.28C136.059 170.727 135.832 169.937 135.832 168.91V168.28C135.832 167.253 136.059 166.467 136.512 165.92C136.972 165.373 137.649 165.1 138.542 165.1C139.435 165.1 140.109 165.373 140.562 165.92C141.022 166.467 141.252 167.253 141.252 168.28ZM139.972 167.78C139.972 167.193 139.922 166.733 139.822 166.4C139.722 166.06 139.565 165.817 139.352 165.67C139.145 165.523 138.875 165.45 138.542 165.45C138.215 165.45 137.945 165.523 137.732 165.67C137.519 165.817 137.362 166.06 137.262 166.4C137.162 166.733 137.112 167.193 137.112 167.78V169.41C137.112 169.99 137.162 170.45 137.262 170.79C137.362 171.13 137.519 171.377 137.732 171.53C137.945 171.677 138.215 171.75 138.542 171.75C138.875 171.75 139.145 171.677 139.352 171.53C139.565 171.377 139.722 171.13 139.822 170.79C139.922 170.45 139.972 169.99 139.972 169.41V167.78ZM144.977 171.72V172H143.047V171.72L143.597 171.65C143.671 171.637 143.724 171.623 143.757 171.61C143.791 171.59 143.821 171.547 143.847 171.48C143.874 171.413 143.911 171.307 143.957 171.16L145.867 165.2H146.727L148.647 171.16C148.694 171.307 148.731 171.413 148.757 171.48C148.784 171.547 148.814 171.59 148.847 171.61C148.887 171.623 148.941 171.637 149.007 171.65L149.557 171.72V172H146.797V171.72L147.347 171.65C147.454 171.637 147.511 171.61 147.517 171.57C147.531 171.523 147.501 171.387 147.427 171.16L147.047 169.92H144.737L144.347 171.16C144.281 171.387 144.251 171.523 144.257 171.57C144.264 171.61 144.321 171.637 144.427 171.65L144.977 171.72ZM144.857 169.57H146.937L145.907 166.25L144.857 169.57ZM155.644 165.48V165.2H157.584V165.48L157.034 165.55C156.927 165.563 156.864 165.593 156.844 165.64C156.824 165.68 156.814 165.813 156.814 166.04V172H156.264L152.594 166.07V171.16C152.594 171.387 152.604 171.523 152.624 171.57C152.644 171.61 152.707 171.637 152.814 171.65L153.364 171.72V172H151.424V171.72L151.974 171.65C152.081 171.637 152.144 171.61 152.164 171.57C152.184 171.523 152.194 171.387 152.194 171.16V166.04C152.194 165.813 152.184 165.68 152.164 165.64C152.144 165.593 152.081 165.563 151.974 165.55L151.424 165.48V165.2H153.434L156.414 169.99V166.04C156.414 165.813 156.404 165.68 156.384 165.64C156.364 165.593 156.301 165.563 156.194 165.55L155.644 165.48ZM159.789 165.48V165.2H162.739C163.593 165.2 164.246 165.45 164.699 165.95C165.159 166.45 165.389 167.227 165.389 168.28V168.91C165.389 169.963 165.159 170.743 164.699 171.25C164.246 171.75 163.593 172 162.739 172H159.789V171.72L160.339 171.65C160.446 171.637 160.509 171.61 160.529 171.57C160.549 171.523 160.559 171.387 160.559 171.16V166.04C160.559 165.813 160.549 165.68 160.529 165.64C160.509 165.593 160.446 165.563 160.339 165.55L159.789 165.48ZM162.689 165.55H161.759V171.65H162.689C163.029 171.65 163.303 171.593 163.509 171.48C163.716 171.36 163.866 171.14 163.959 170.82C164.059 170.493 164.109 170.023 164.109 169.41V167.78C164.109 167.167 164.059 166.7 163.959 166.38C163.866 166.06 163.716 165.843 163.509 165.73C163.303 165.61 163.029 165.55 162.689 165.55ZM169.269 165.48V165.2H172.009V165.48L171.459 165.55C171.352 165.563 171.289 165.593 171.269 165.64C171.249 165.68 171.239 165.813 171.239 166.04V170.06C171.239 170.44 171.175 170.787 171.049 171.1C170.922 171.407 170.715 171.65 170.429 171.83C170.142 172.01 169.759 172.1 169.279 172.1C169.032 172.1 168.789 172.06 168.549 171.98C168.315 171.893 168.112 171.74 167.939 171.52C167.772 171.3 167.662 170.987 167.609 170.58L168.299 170.38C168.319 170.747 168.372 171.03 168.459 171.23C168.545 171.423 168.655 171.56 168.789 171.64C168.922 171.713 169.065 171.75 169.219 171.75C169.372 171.75 169.509 171.71 169.629 171.63C169.755 171.55 169.855 171.403 169.929 171.19C170.002 170.977 170.039 170.667 170.039 170.26V166.04C170.039 165.813 170.029 165.68 170.009 165.64C169.989 165.593 169.925 165.563 169.819 165.55L169.269 165.48ZM175.323 171.72V172H173.393V171.72L173.943 171.65C174.016 171.637 174.07 171.623 174.103 171.61C174.136 171.59 174.166 171.547 174.193 171.48C174.22 171.413 174.256 171.307 174.303 171.16L176.213 165.2H177.073L178.993 171.16C179.04 171.307 179.076 171.413 179.103 171.48C179.13 171.547 179.16 171.59 179.193 171.61C179.233 171.623 179.286 171.637 179.353 171.65L179.903 171.72V172H177.143V171.72L177.693 171.65C177.8 171.637 177.856 171.61 177.863 171.57C177.876 171.523 177.846 171.387 177.773 171.16L177.393 169.92H175.083L174.693 171.16C174.626 171.387 174.596 171.523 174.603 171.57C174.61 171.61 174.666 171.637 174.773 171.65L175.323 171.72ZM175.203 169.57H177.283L176.253 166.25L175.203 169.57ZM185.99 165.48V165.2H187.93V165.48L187.38 165.55C187.273 165.563 187.21 165.593 187.19 165.64C187.17 165.68 187.16 165.813 187.16 166.04V172H186.61L182.94 166.07V171.16C182.94 171.387 182.95 171.523 182.97 171.57C182.99 171.61 183.053 171.637 183.16 171.65L183.71 171.72V172H181.77V171.72L182.32 171.65C182.427 171.637 182.49 171.61 182.51 171.57C182.53 171.523 182.54 171.387 182.54 171.16V166.04C182.54 165.813 182.53 165.68 182.51 165.64C182.49 165.593 182.427 165.563 182.32 165.55L181.77 165.48V165.2H183.78L186.76 169.99V166.04C186.76 165.813 186.75 165.68 186.73 165.64C186.71 165.593 186.647 165.563 186.54 165.55L185.99 165.48ZM194.805 170.28H195.085V172H190.135V171.72L190.685 171.65C190.792 171.637 190.855 171.61 190.875 171.57C190.895 171.523 190.905 171.387 190.905 171.16V166.04C190.905 165.813 190.895 165.68 190.875 165.64C190.855 165.593 190.792 165.563 190.685 165.55L190.135 165.48V165.2H194.985V166.92H194.705L194.385 165.81C194.365 165.73 194.342 165.673 194.315 165.64C194.295 165.6 194.252 165.577 194.185 165.57C194.118 165.557 194.005 165.55 193.845 165.55H192.105V168.39H193.245C193.405 168.39 193.518 168.387 193.585 168.38C193.652 168.367 193.695 168.343 193.715 168.31C193.742 168.27 193.765 168.21 193.785 168.13L194.005 167.32H194.285V169.81H194.005L193.785 169C193.765 168.92 193.742 168.863 193.715 168.83C193.695 168.79 193.652 168.767 193.585 168.76C193.518 168.747 193.405 168.74 193.245 168.74H192.105V171.65H193.945C194.105 171.65 194.218 171.647 194.285 171.64C194.352 171.627 194.395 171.603 194.415 171.57C194.442 171.53 194.465 171.47 194.485 171.39L194.805 170.28Z" fill="#704329"/>
</svg>
